<?xml version="1.0" encoding="iso-8859-1"?>
<!-- Generator: Adobe Illustrator 21.0.0, SVG Export Plug-In . SVG Version: 6.00 Build 0)  -->
<svg version="1.1" id="Layer_1" xmlns="http://www.w3.org/2000/svg" xmlns:xlink="http://www.w3.org/1999/xlink" x="0px" y="0px"
	 viewBox="0 0 40 40" style="enable-background:new 0 0 40 40;" xml:space="preserve">
<g>
	<rect x="8.5" y="2.5" style="fill:#FFC49C;" width="27" height="31"/>
	<g>
		<path style="fill:#A16A4A;" d="M35,3v30L9,33V3H35 M36,2H8v32l28,0V2L36,2z"/>
	</g>
</g>
<g>
	<path style="fill:#FFC49C;" d="M5.5,35V5c0-1.378,1.121-2.5,2.5-2.5h0.5V35H5.5z"/>
	<g>
		<path style="fill:#A16A4A;" d="M8,3v31.5H6V5C6,3.897,6.897,3,8,3 M9,2H8C6.343,2,5,3.343,5,5v30.5h4V2L9,2z"/>
	</g>
</g>
<g>
	<rect x="9" y="3" style="fill:#FFD5B8;" width="1" height="30"/>
</g>
<g>
	<path style="fill:#DB996C;" d="M9,3H8C6.895,3,6,3.895,6,5v30.231h3V3z"/>
</g>
<g>
	<path style="fill:#FFFFFF;" d="M7.5,37.5c-1.103,0-2-0.897-2-2s0.897-2,2-2h28v0.34C35.321,34.112,35,34.71,35,35.5
		s0.321,1.388,0.5,1.66v0.34H7.5z"/>
	<g>
		<path style="fill:#A16A4A;" d="M34.839,34c-0.174,0.371-0.339,0.884-0.339,1.5c0,0.616,0.165,1.13,0.339,1.5H7.5
			C6.673,37,6,36.327,6,35.5S6.673,34,7.5,34H34.839 M36,33H7.5C6.119,33,5,34.119,5,35.5S6.119,38,7.5,38H36v-1
			c0,0-0.5-0.597-0.5-1.5c0-0.903,0.5-1.5,0.5-1.5V33L36,33z"/>
	</g>
</g>
</svg>
